<svg width="214" height="69" viewBox="0 0 214 69" fill="none" xmlns="http://www.w3.org/2000/svg">
<g id="DAED FULL (2) 1">
<path id="Vector" d="M96.8807 54.0619C93.5489 54.0619 91.1435 53.1727 89.6644 51.3943C88.1989 49.616 87.4663 46.7856 87.4663 42.9027V39.0793H94.6826V43.9697C94.6826 44.8738 94.807 45.5852 95.0558 46.1037C95.3186 46.6077 95.7679 46.8595 96.4036 46.8595C97.0671 46.8595 97.5236 46.6522 97.7725 46.2371C98.0349 45.822 98.1663 45.1406 98.1663 44.192C98.1663 42.9916 98.0558 41.9911 97.8345 41.1909C97.6132 40.376 97.2264 39.6053 96.6733 38.879C96.1341 38.1381 95.3807 37.2785 94.4129 36.3004L91.1368 32.9662C88.6896 30.4913 87.4663 27.6607 87.4663 24.4746C87.4663 21.1401 88.1853 18.5986 89.6229 16.8499C91.0744 15.1012 93.1687 14.2268 95.9059 14.2268C99.2516 14.2268 101.622 15.1827 103.019 17.0944C104.429 19.0061 105.134 21.9108 105.134 25.8083H97.7101V23.1186C97.7101 22.5851 97.5648 22.1701 97.2748 21.8737C96.9981 21.5773 96.6179 21.4291 96.1341 21.4291C95.5535 21.4291 95.1249 21.607 94.8485 21.9626C94.5857 22.3035 94.4546 22.7481 94.4546 23.2964C94.4546 23.8447 94.5927 24.4375 94.8694 25.0747C95.1458 25.712 95.6919 26.4456 96.5074 27.2755L100.717 31.6102C101.56 32.4697 102.335 33.3811 103.039 34.3444C103.745 35.2929 104.311 36.4043 104.74 37.679C105.168 38.9384 105.383 40.4795 105.383 42.3027C105.383 45.9778 104.747 48.8602 103.475 50.9497C102.217 53.0244 100.019 54.0619 96.8807 54.0619ZM110.961 53.7062V22.096H106.627V14.5825H122.594V22.096H118.26V53.7062H110.961ZM133.066 54.0619C130.024 54.0619 127.785 53.1506 126.347 51.3275C124.909 49.4901 124.19 46.7927 124.19 43.236V14.5825H131.283V42.9251C131.283 43.5771 131.317 44.2069 131.386 44.8144C131.455 45.4073 131.614 45.8964 131.863 46.2816C132.112 46.6668 132.513 46.8595 133.066 46.8595C133.633 46.8595 134.04 46.6742 134.289 46.304C134.538 45.9184 134.69 45.4219 134.745 44.8144C134.814 44.2069 134.849 43.5771 134.849 42.9251V14.5825H141.941V43.236C141.941 46.7927 141.222 49.4901 139.784 51.3275C138.347 53.1506 136.107 54.0619 133.066 54.0619ZM144.74 53.7062V14.5825H154.777C157.404 14.5825 159.38 15.3679 160.707 16.9388C162.035 18.4948 162.698 20.7771 162.698 23.7854V42.1024C162.698 45.8075 162.09 48.6674 160.873 50.683C159.671 52.6986 157.555 53.7062 154.528 53.7062H144.74ZM152.081 46.7927H153.346C154.687 46.7927 155.357 46.0963 155.357 44.7035V24.519C155.357 23.2149 155.192 22.3776 154.86 22.0071C154.542 21.6218 153.885 21.4291 152.89 21.4291H152.081V46.7927ZM165.352 53.7062V14.5825H172.403V53.7062H165.352ZM184.015 54.0619C181.098 54.0619 178.866 53.1208 177.317 51.2385C175.783 49.3418 175.016 46.6077 175.016 43.0361V24.4523C175.016 21.1031 175.776 18.5615 177.297 16.8276C178.831 15.0938 181.071 14.2268 184.015 14.2268C186.96 14.2268 189.192 15.0938 190.713 16.8276C192.248 18.5615 193.015 21.1031 193.015 24.4523V43.0361C193.015 46.6077 192.241 49.3418 190.692 51.2385C189.158 53.1208 186.932 54.0619 184.015 54.0619ZM184.077 46.8595C185.183 46.8595 185.736 45.7111 185.736 43.4138V24.3189C185.736 22.3924 185.197 21.4291 184.119 21.4291C182.902 21.4291 182.294 22.4146 182.294 24.3856V43.4586C182.294 44.6736 182.432 45.5478 182.709 46.0813C182.985 46.6003 183.442 46.8595 184.077 46.8595ZM204.627 54.0619C201.295 54.0619 198.89 53.1727 197.411 51.3943C195.945 49.616 195.213 46.7856 195.213 42.9027V39.0793H202.429V43.9697C202.429 44.8738 202.554 45.5852 202.802 46.1037C203.065 46.6077 203.514 46.8595 204.15 46.8595C204.814 46.8595 205.27 46.6522 205.519 46.2371C205.781 45.822 205.913 45.1406 205.913 44.192C205.913 42.9916 205.802 41.9911 205.581 41.1909C205.36 40.376 204.973 39.6053 204.42 38.879C203.881 38.1381 203.127 37.2785 202.159 36.3004L198.883 32.9662C196.436 30.4913 195.213 27.6607 195.213 24.4746C195.213 21.1401 195.932 18.5986 197.369 16.8499C198.821 15.1012 200.915 14.2268 203.652 14.2268C206.998 14.2268 209.369 15.1827 210.765 17.0944C212.175 19.0061 212.88 21.9108 212.88 25.8083H205.457V23.1186C205.457 22.5851 205.311 22.1701 205.021 21.8737C204.745 21.5773 204.364 21.4291 203.881 21.4291C203.3 21.4291 202.871 21.607 202.595 21.9626C202.332 22.3035 202.201 22.7481 202.201 23.2964C202.201 23.8447 202.339 24.4375 202.616 25.0747C202.892 25.712 203.438 26.4456 204.254 27.2755L208.463 31.6102C209.307 32.4697 210.081 33.3811 210.786 34.3444C211.491 35.2929 212.058 36.4043 212.486 37.679C212.915 38.9384 213.129 40.4795 213.129 42.3027C213.129 45.9778 212.493 48.8602 211.221 50.9497C209.963 53.0244 207.765 54.0619 204.627 54.0619Z" fill="white"/>
<path id="Vector_2" d="M1.61743 54.0619V14.9382H11.6539C14.2805 14.9382 16.2574 15.7237 17.5845 17.2945C18.9116 18.8506 19.5752 21.1328 19.5752 24.1412V42.4582C19.5752 46.1632 18.9669 49.0232 17.7504 51.0387C16.5477 53.0543 14.4325 54.0619 11.405 54.0619H1.61743ZM8.95813 47.1484H10.2231C11.564 47.1484 12.2345 46.452 12.2345 45.0592V24.8748C12.2345 23.5706 12.0686 22.7333 11.7368 22.3628C11.4189 21.9775 10.7622 21.7849 9.76685 21.7849H8.95813V47.1484Z" fill="white"/>
<path id="Vector_3" d="M57.0251 54.0619V14.9382H67.0616C69.6883 14.9382 71.6651 15.7237 72.9922 17.2945C74.3193 18.8506 74.9829 21.1328 74.9829 24.1412V42.4582C74.9829 46.1632 74.3747 49.0232 73.1581 51.0387C71.9554 53.0543 69.8403 54.0619 66.8127 54.0619H57.0251ZM64.3658 47.1484H65.6306C66.9717 47.1484 67.6422 46.452 67.6422 45.0592V24.8748C67.6422 23.5706 67.4763 22.7333 67.1445 22.3628C66.8267 21.9775 66.1701 21.7849 65.1747 21.7849H64.3658V47.1484Z" fill="white"/>
<path id="Vector_4" fill-rule="evenodd" clip-rule="evenodd" d="M35.8007 14.9382H40.6288H53.6931V22.763H39.5031L34.5313 30.5879H53.6931V38.4125H29.5597L19.6167 54.0619H10.949L35.8007 14.9479V14.9382ZM53.7488 46.2372H38.155V54.0619H53.7488V46.2372Z" fill="white"/>
<path id="Vector_5" d="M45.4543 14.9382H38.155V54.0619H45.4543V14.9382Z" fill="white"/>
</g>
</svg>
