<svg width="106" height="54" viewBox="0 0 106 54" fill="none" xmlns="http://www.w3.org/2000/svg">
<g id="LOGO">
<path id="Vector" d="M25.0754 42.0828V11.3586H33.3625C35.5863 11.3586 37.202 11.9056 38.2097 12.9995C39.229 14.0819 39.7386 15.8741 39.7386 18.3763V19.7205C39.7386 21.1636 39.478 22.3332 38.9566 23.2293C38.4469 24.1254 37.6653 24.7132 36.6113 24.9925C37.9896 25.3416 38.9102 26.1621 39.3735 27.4539C39.8487 28.734 40.0859 30.2994 40.0859 32.1498C40.0859 34.1399 39.9005 35.8798 39.5299 37.3695C39.1593 38.8591 38.4877 40.017 37.5148 40.8434C36.5418 41.6698 35.1577 42.0828 33.3625 42.0828H25.0754ZM31.0518 22.9325H32.3027C32.8703 22.9325 33.2351 22.7114 33.3973 22.2692C33.5594 21.8269 33.6405 21.2974 33.6405 20.6806V17.5907C33.6405 16.6015 33.2062 16.1069 32.3375 16.1069H31.0518V22.9325ZM31.6599 36.6711C33.2467 36.6711 34.0401 35.9147 34.0401 34.4017V30.5612C34.0401 29.6884 33.9069 29.0017 33.6405 28.5013C33.3857 27.9892 32.8992 27.7332 32.1811 27.7332H31.0518V36.6362C31.3067 36.6595 31.5093 36.6711 31.6599 36.6711ZM41.8234 42.0828V11.3586H47.7301V42.0828H41.8234ZM50.1625 42.0828V11.3586H56.2779V36.8457H62.5668V42.0828H50.1625ZM64.3043 42.0828V11.3586H70.4197V36.8457H76.7089V42.0828H64.3043ZM78.446 42.0828V11.3586H84.5614V36.8457H90.8506V42.0828H78.446ZM95.1766 42.0828V31.9752L90.2947 11.3586H96.3578L98.0605 21.7629L99.7631 11.3586H105.809L100.944 31.9752V42.0828H95.1766Z" fill="white"/>
<path id="Vector_2" d="M23.7203 11.5448H18.5315V42.0828H23.7203V11.5448Z" fill="white"/>
<path id="Vector_3" d="M16.6783 11.5448H15.1958V42.0828H16.6783V11.5448Z" fill="white"/>
<path id="Vector_4" d="M13.3427 11.5448H10.3777V42.0828H13.3427V11.5448Z" fill="white"/>
<path id="Vector_5" d="M8.52446 11.5448H7.7832V42.0828H8.52446V11.5448Z" fill="white"/>
<path id="Vector_6" d="M6.67126 11.5448H4.81812V42.0828H6.67126V11.5448Z" fill="white"/>
<path id="Vector_7" d="M3.70639 11.5448H2.22388V42.0828H3.70639V11.5448Z" fill="white"/>
<path id="Vector_8" d="M0.370629 11.5448H0V42.0828H0.370629V11.5448Z" fill="white"/>
<path id="Vector_9" d="M10.6258 43.467V45.4345H10.2892V43.467H10.6258ZM10.2639 42.9449C10.2639 42.8905 10.2802 42.8443 10.3128 42.8067C10.3465 42.7691 10.396 42.7505 10.4612 42.7505C10.5251 42.7505 10.5739 42.7691 10.6077 42.8067C10.6427 42.8443 10.6602 42.8905 10.6602 42.9449C10.6602 42.997 10.6427 43.0421 10.6077 43.0797C10.5739 43.1158 10.5251 43.1341 10.4612 43.1341C10.396 43.1341 10.3465 43.1158 10.3128 43.0797C10.2802 43.0421 10.2639 42.997 10.2639 42.9449ZM11.4981 43.8871V45.4345H11.1633V43.467H11.48L11.4981 43.8871ZM11.4185 44.3761L11.2791 44.3709C11.2804 44.2361 11.3003 44.112 11.3389 43.9981C11.3775 43.8826 11.4318 43.7828 11.5017 43.6979C11.5717 43.613 11.655 43.5475 11.7515 43.5017C11.8492 43.4544 11.9572 43.4305 12.0754 43.4305C12.172 43.4305 12.2588 43.4439 12.336 43.4707C12.4132 43.4961 12.479 43.5374 12.5333 43.5944C12.5888 43.6514 12.631 43.7251 12.66 43.816C12.6889 43.9057 12.7034 44.0156 12.7034 44.1452V45.4345H12.3668V44.1415C12.3668 44.0387 12.3517 43.956 12.3215 43.8942C12.2914 43.8312 12.2473 43.7858 12.1894 43.7579C12.1315 43.7288 12.0604 43.7143 11.9759 43.7143C11.8926 43.7143 11.8166 43.7318 11.7479 43.7668C11.6803 43.8022 11.6218 43.8506 11.5723 43.9124C11.5241 43.9742 11.4861 44.0454 11.4583 44.1251C11.4318 44.204 11.4185 44.2878 11.4185 44.3761ZM13.8073 45.131L14.343 43.467H14.685L13.9811 45.4345H13.7567L13.8073 45.131ZM13.3603 43.467L13.9123 45.1399L13.9503 45.4345H13.7259L13.0165 43.467H13.3603ZM14.8895 44.4725V44.4308C14.8895 44.2889 14.9101 44.1575 14.951 44.0361C14.9921 43.9135 15.0512 43.8078 15.1284 43.718C15.2056 43.6268 15.2991 43.5568 15.4089 43.5069C15.5187 43.4562 15.6418 43.4305 15.7781 43.4305C15.9156 43.4305 16.0393 43.4562 16.1491 43.5069C16.2601 43.5568 16.3542 43.6268 16.4314 43.718C16.5098 43.8078 16.5695 43.9135 16.6106 44.0361C16.6516 44.1575 16.6721 44.2889 16.6721 44.4308V44.4725C16.6721 44.6144 16.6516 44.7459 16.6106 44.8673C16.5695 44.9883 16.5098 45.0945 16.4314 45.1853C16.3542 45.2751 16.2607 45.3455 16.1509 45.3961C16.0423 45.446 15.9192 45.471 15.7817 45.471C15.6442 45.471 15.5205 45.446 15.4107 45.3961C15.301 45.3455 15.2068 45.2751 15.1284 45.1853C15.0512 45.0945 14.9921 44.9883 14.951 44.8673C14.9101 44.7459 14.8895 44.6144 14.8895 44.4725ZM15.2243 44.4308V44.4725C15.2243 44.5709 15.2358 44.6636 15.2587 44.7507C15.2816 44.8368 15.316 44.9131 15.3618 44.9798C15.4089 45.0464 15.4674 45.0993 15.5374 45.138C15.6074 45.1757 15.6888 45.1943 15.7817 45.1943C15.8734 45.1943 15.9536 45.1757 16.0224 45.138C16.0924 45.0993 16.1503 45.0464 16.1961 44.9798C16.242 44.9131 16.2764 44.8368 16.2993 44.7507C16.3234 44.6636 16.3355 44.5709 16.3355 44.4725V44.4308C16.3355 44.3336 16.3234 44.2424 16.2993 44.156C16.2764 44.0688 16.2414 43.9918 16.1943 43.9251C16.1485 43.8573 16.0906 43.8041 16.0206 43.7653C15.9518 43.7262 15.871 43.7069 15.7781 43.7069C15.6864 43.7069 15.6056 43.7262 15.5356 43.7653C15.4668 43.8041 15.4089 43.8573 15.3618 43.9251C15.316 43.9918 15.2816 44.0688 15.2587 44.156C15.2358 44.2424 15.2243 44.3336 15.2243 44.4308ZM17.4557 43.467V45.4345H17.1191V43.467H17.4557ZM17.0938 42.9449C17.0938 42.8905 17.11 42.8443 17.1426 42.8067C17.1764 42.7691 17.2259 42.7505 17.291 42.7505C17.3549 42.7505 17.4038 42.7691 17.4376 42.8067C17.4726 42.8443 17.4901 42.8905 17.4901 42.9449C17.4901 42.997 17.4726 43.0421 17.4376 43.0797C17.4038 43.1158 17.3549 43.1341 17.291 43.1341C17.2259 43.1341 17.1764 43.1158 17.1426 43.0797C17.11 43.0421 17.0938 42.997 17.0938 42.9449ZM18.7768 45.1943C18.8564 45.1943 18.93 45.1783 18.9976 45.1455C19.0651 45.1127 19.1206 45.0677 19.1641 45.0107C19.2075 44.9526 19.2323 44.8867 19.2383 44.8126H19.5568C19.5507 44.9291 19.5115 45.0375 19.4391 45.138C19.368 45.2375 19.2745 45.3183 19.1587 45.3801C19.0428 45.4404 18.9156 45.471 18.7768 45.471C18.6296 45.471 18.5011 45.4449 18.3913 45.3928C18.2827 45.3406 18.1923 45.2691 18.1199 45.1783C18.0487 45.087 17.995 44.9827 17.9588 44.8654C17.9238 44.7466 17.9063 44.6211 17.9063 44.4889V44.4126C17.9063 44.2804 17.9238 44.1556 17.9588 44.0379C17.995 43.9191 18.0487 43.8141 18.1199 43.7232C18.1923 43.6324 18.2827 43.5609 18.3913 43.5087C18.5011 43.4566 18.6296 43.4305 18.7768 43.4305C18.93 43.4305 19.0639 43.4622 19.1786 43.5251C19.2932 43.5869 19.3831 43.6718 19.4482 43.7798C19.5146 43.8864 19.5507 44.0078 19.5568 44.1433H19.2383C19.2323 44.0621 19.2093 43.9888 19.1695 43.9232C19.1309 43.8581 19.0778 43.8059 19.0103 43.7668C18.9439 43.727 18.8661 43.7069 18.7768 43.7069C18.6742 43.7069 18.588 43.7277 18.518 43.7687C18.4492 43.8089 18.3943 43.8633 18.3533 43.9325C18.3135 44.0003 18.2846 44.0763 18.2665 44.1597C18.2496 44.2424 18.2411 44.3266 18.2411 44.4126V44.4889C18.2411 44.575 18.2496 44.6599 18.2665 44.7437C18.2833 44.8271 18.3117 44.903 18.3515 44.9708C18.3925 45.0386 18.4474 45.0934 18.5162 45.1343C18.5862 45.1745 18.6731 45.1943 18.7768 45.1943ZM20.7458 45.471C20.6094 45.471 20.4858 45.4479 20.3748 45.4017C20.265 45.3544 20.1703 45.2885 20.0906 45.2036C20.0122 45.1187 19.9519 45.0181 19.9097 44.9016C19.8674 44.7854 19.8464 44.658 19.8464 44.5198V44.4435C19.8464 44.2834 19.8699 44.1411 19.9169 44.016C19.964 43.8901 20.0279 43.7832 20.1088 43.6961C20.1896 43.6089 20.2813 43.5426 20.3838 43.4979C20.4864 43.4529 20.5925 43.4305 20.7023 43.4305C20.8423 43.4305 20.9629 43.4547 21.0643 43.5031C21.1668 43.5519 21.2507 43.6197 21.3158 43.7069C21.381 43.7929 21.4292 43.8949 21.4606 44.0126C21.492 44.1288 21.5077 44.2562 21.5077 44.3943V44.5452H20.0454V44.2707H21.1729V44.2454C21.168 44.1578 21.1499 44.0729 21.1186 43.9906C21.0884 43.9083 21.0402 43.8402 20.9738 43.7869C20.9074 43.7337 20.817 43.7069 20.7023 43.7069C20.6263 43.7069 20.5563 43.7232 20.4924 43.756C20.4285 43.7877 20.3736 43.835 20.3277 43.8979C20.2819 43.9608 20.2463 44.0379 20.2209 44.1288C20.1956 44.2197 20.183 44.3247 20.183 44.4435V44.5198C20.183 44.6133 20.1956 44.7012 20.2209 44.7835C20.2475 44.8647 20.2855 44.9362 20.335 44.998C20.3856 45.0598 20.4466 45.1082 20.5177 45.1436C20.5901 45.1786 20.6722 45.1961 20.7638 45.1961C20.8821 45.1961 20.9822 45.1719 21.0643 45.1235C21.1463 45.0751 21.2181 45.0103 21.2796 44.9291L21.4823 45.0907C21.4401 45.1552 21.3864 45.2162 21.3212 45.2743C21.2561 45.3328 21.1759 45.3801 21.0805 45.4162C20.9864 45.4527 20.8749 45.471 20.7458 45.471ZM23.0387 44.9127C23.0387 44.8639 23.0278 44.8193 23.0061 44.7779C22.9856 44.7355 22.9427 44.6975 22.8776 44.6636C22.8137 44.6282 22.7171 44.598 22.588 44.5727C22.4795 44.5496 22.3811 44.5221 22.2931 44.4908C22.2062 44.4591 22.132 44.4211 22.0705 44.3761C22.0102 44.3314 21.9637 44.2785 21.9311 44.2178C21.8986 44.1575 21.8823 44.0863 21.8823 44.0052C21.8823 43.9277 21.8992 43.8543 21.9329 43.7851C21.9679 43.7162 22.0168 43.6547 22.0795 43.6015C22.1435 43.5482 22.2201 43.5065 22.3094 43.476C22.3986 43.4458 22.4982 43.4305 22.608 43.4305C22.7648 43.4305 22.8987 43.4585 23.0097 43.5143C23.1207 43.5698 23.2058 43.6447 23.2649 43.7378C23.324 43.8301 23.3535 43.9325 23.3535 44.0454H23.0188C23.0188 43.9906 23.0025 43.9378 22.9699 43.8871C22.9386 43.835 22.8921 43.7918 22.8306 43.7579C22.7702 43.724 22.696 43.7069 22.608 43.7069C22.5151 43.7069 22.4396 43.7214 22.3818 43.7508C22.325 43.7784 22.2834 43.8141 22.2569 43.8581C22.2315 43.9016 22.2189 43.9474 22.2189 43.9962C22.2189 44.0323 22.2249 44.0651 22.237 44.0942C22.2503 44.1221 22.2732 44.1482 22.3057 44.1724C22.3383 44.1955 22.3842 44.2174 22.4433 44.2379C22.5024 44.2584 22.5778 44.2793 22.6695 44.2997C22.83 44.3362 22.962 44.3798 23.0658 44.4308C23.1696 44.4815 23.2468 44.544 23.2975 44.6182C23.3481 44.6919 23.3735 44.7816 23.3735 44.887C23.3735 44.9731 23.3554 45.052 23.3192 45.1235C23.2842 45.195 23.2329 45.2568 23.1653 45.309C23.099 45.36 23.0193 45.3998 22.9265 45.4289C22.8348 45.4568 22.7316 45.471 22.617 45.471C22.4445 45.471 22.2985 45.4401 22.1791 45.3782C22.0596 45.3164 21.9691 45.2364 21.9076 45.138C21.8461 45.0397 21.8153 44.9362 21.8153 44.8271H22.1519C22.1567 44.9194 22.1833 44.9924 22.2315 45.0472C22.2798 45.1004 22.3389 45.1388 22.4089 45.1619C22.4789 45.1835 22.5482 45.1943 22.617 45.1943C22.7087 45.1943 22.7853 45.1824 22.8469 45.1582C22.9096 45.1339 22.9572 45.1004 22.9898 45.058C23.0224 45.0155 23.0387 44.9671 23.0387 44.9127Z" fill="white"/>
</g>
</svg>
